<svg width="24" height="24" viewBox="0 0 24 24" fill="none" xmlns="http://www.w3.org/2000/svg">
<rect width="24" height="24" rx="3" fill="white"/>
<path d="M10.3887 18.3691C9.87305 18.3691 9.91992 18.1816 9.7793 17.7129L8.2793 12.791L19.7637 6.04102" fill="#211F28"/>
<path d="M10.3887 18.3691C10.7168 18.3691 10.9043 18.1816 11.1387 17.9941L13.248 15.9785L10.623 14.3848" fill="#0E0D11"/>
<path d="M10.6229 14.3847L16.9511 19.0254C17.6073 19.4472 18.1698 19.2129 18.3573 18.3691L20.9354 6.27535C21.1698 5.2441 20.5136 4.77535 19.8104 5.10348L4.76357 10.916C3.7792 11.291 3.7792 11.9004 4.57607 12.1347L8.4667 13.3535L17.3729 7.6816C17.7948 7.44723 18.1698 7.54098 17.8886 7.8691" fill="#302C3A"/>
</svg>
