<svg width="24" height="24" viewBox="0 0 24 24" fill="none" xmlns="http://www.w3.org/2000/svg">
<path d="M21.9999 0H2.0001C0.9003 0 0 0.9003 0 2.0001V21.9999C0 23.0997 0.9003 24 2.0001 24H21.9999C23.0997 24 24 23.0997 24 21.9999V2.0001C24 0.9003 23.0997 0 21.9999 0ZM20.5449 17.25H17.8749L16.0059 15.3888C14.8398 14.2422 14.3418 14.1525 14.0589 14.1525C13.8069 14.1525 13.6329 14.34 13.6329 14.7783V16.5315C13.6329 17.0472 13.3362 17.2503 12.1116 17.2503C10.0998 17.2503 7.8693 16.014 6.174 13.7298C3.6444 10.3329 3 7.7988 3 7.251C3 6.9531 3.2205 6.75 3.5193 6.75H6.2673L6.5037 7.4706C7.4451 10.2237 9.1266 12.6483 9.834 12.6483C10.0995 12.6483 10.1307 12.4305 10.1307 11.8671V9.0663C10.1307 7.7088 9.3612 7.5957 9.3612 7.0935V6.75H13.5702V11.2413C13.5702 11.6748 13.6602 11.8359 13.8534 11.8359C14.0937 11.8359 14.3142 11.6916 14.7498 11.2098C16.1034 9.7227 17.2146 7.3614 17.2146 7.3614L17.4489 6.8592H20.0583C20.4663 6.8592 20.6385 7.08 20.5602 7.4706C20.3238 8.5644 17.9529 11.8983 17.9529 11.8983C17.7342 12.243 17.6385 12.4305 17.9529 12.7587C18.1734 13.0407 18.8649 13.6515 19.2867 14.2149C20.3238 15.3096 20.9997 16.2327 20.9997 16.7499C21 17.1408 20.7813 17.25 20.5449 17.25Z" fill="white"/>
</svg>
