<svg width="56" height="60" viewBox="0 0 56 60" fill="none" xmlns="http://www.w3.org/2000/svg">
<path d="M54.7021 31.0547L45.9641 21.6328L51.1655 16.0195C52.591 14.4844 52.591 11.9883 51.1655 10.4531L45.9967 4.88672C44.5712 3.35156 42.2534 3.35156 40.8279 4.88672L35.6264 10.5L26.8884 1.08984C26.2029 0.363281 25.3215 0 24.4292 0C23.5369 0 22.6555 0.363281 21.9808 1.08984L11.4582 12.4219C10.1089 13.875 10.1089 16.2422 11.4582 17.707L20.1962 27.1289L19.1298 28.2773C13.2863 25.4297 6.48526 25.6172 0.794133 28.9102C-0.130811 29.4492 -0.25051 30.832 0.489445 31.6289L12.1873 44.2266L10.2503 46.3125C9.9674 46.2305 9.70624 46.125 9.40156 46.125C7.4755 46.125 5.91941 47.8008 5.91941 49.875C5.91941 51.9492 7.4755 53.625 9.40156 53.625C11.3276 53.625 12.8837 51.9492 12.8837 49.875C12.8837 49.5469 12.7858 49.2656 12.7096 48.9609L14.6465 46.875L26.3444 59.4727C27.0843 60.2695 28.3792 60.1406 28.8689 59.1445C31.9267 53.0156 32.1008 45.6914 29.4565 39.3984L30.5338 38.2383L39.2718 47.6602C39.9465 48.3867 40.8388 48.75 41.7202 48.75C42.6016 48.75 43.4939 48.3867 44.1686 47.6602L54.6912 36.3281C56.0514 34.875 56.0514 32.5078 54.7021 31.0547V31.0547ZM16.3985 15.0586L24.4292 6.41016L31.9267 14.4844L23.896 23.1328L16.3985 15.0586V15.0586ZM41.7311 42.3398L34.2336 34.2656L42.2643 25.6172L49.7618 33.6914L41.7311 42.3398V42.3398Z" fill="white"/>
</svg>
