<svg width="55" height="60" viewBox="0 0 55 60" fill="none" xmlns="http://www.w3.org/2000/svg">
<path d="M17.9422 36.2508C13.6324 36.5531 9.72119 38.3438 7.50186 44.7234C7.24941 45.4512 6.64248 45.893 5.93457 45.893C4.74111 45.893 1.05117 42.6504 -0.000488281 41.8676C0.000585937 51.518 4.0751 60 13.7506 60C21.8996 60 27.5006 54.8707 27.5006 45.9152C27.5006 45.5508 27.4308 45.2027 27.3964 44.8453L17.9422 36.2508V36.2508ZM49.188 0C47.5595 0 46.033 0.786328 44.8686 1.92773C22.9104 23.3262 20.6256 23.8289 20.6256 30.1277C20.6256 31.7332 20.9747 33.2637 21.5634 34.6629L28.419 40.8949C29.1936 41.1059 29.9917 41.25 30.8242 41.25C37.4962 41.25 41.3634 35.9215 53.5074 11.1961C54.3002 9.51445 55.0006 7.69805 55.0006 5.80664C55.0006 2.41875 52.2076 0 49.188 0Z" fill="white"/>
</svg>
