<svg width="64" height="60" viewBox="0 0 64 60" fill="none" xmlns="http://www.w3.org/2000/svg">
<path d="M25.503 30.6621C26.128 31.3945 27.141 31.3945 27.766 30.6621L28.897 29.3367C29.522 28.6043 29.522 27.4172 28.897 26.6848L25.325 22.5L28.896 18.3141C29.521 17.5816 29.521 16.3945 28.896 15.6621L27.765 14.3367C27.14 13.6043 26.127 13.6043 25.502 14.3367L19.668 21.1734C19.043 21.9059 19.043 23.093 19.668 23.8254L25.503 30.6621V30.6621ZM35.104 29.3379L36.235 30.6633C36.86 31.3957 37.873 31.3957 38.498 30.6633L44.332 23.8266C44.957 23.0941 44.957 21.907 44.332 21.1746L38.498 14.3379C37.873 13.6055 36.86 13.6055 36.235 14.3379L35.104 15.6633C34.479 16.3957 34.479 17.5828 35.104 18.3152L38.675 22.5L35.104 26.6859C34.479 27.4184 34.479 28.6055 35.104 29.3379V29.3379ZM62.4 48.75H38.154C38.08 51.0715 36.683 52.5 34.88 52.5H28.8C26.931 52.5 25.498 50.4527 25.523 48.75H1.6C0.72 48.75 0 49.5937 0 50.625V52.5C0 56.625 2.88 60 6.4 60H57.6C61.12 60 64 56.625 64 52.5V50.625C64 49.5937 63.28 48.75 62.4 48.75ZM57.6 5.625C57.6 2.53125 55.44 0 52.8 0H11.2C8.56 0 6.4 2.53125 6.4 5.625V45H57.6V5.625ZM51.2 37.5H12.8V7.5H51.2V37.5Z" fill="white"/>
</svg>
