<svg width="55" height="55" viewBox="0 0 55 55" fill="none" xmlns="http://www.w3.org/2000/svg">
<path d="M26.3761 12.2695L18.3413 15.5742V2.0625L11.8011 24.3633L18.3413 21.5274V36.7969L26.3761 12.2695V12.2695ZM16.4283 0.9375L16.2728 1.48828L14.4554 7.6875C9.63696 9.50391 6.21739 14.0859 6.21739 19.4414C6.21739 25.5703 10.3185 30.6797 16.1891 31.8047V38.086C6.875 36.8555 0 28.9219 0 19.4531C0 10.0195 7.15 2.20313 16.4283 0.9375V0.9375ZM53.6609 53.3438C52.3217 54.6563 50.8989 54.7852 50.2413 54.5743C49.5957 54.3633 47.0011 52.2422 43.0196 49.3711C39.038 46.4883 39.0022 45.1875 37.8783 42.7266C36.7543 40.2774 34.2435 37.7344 31.0033 36.586L29.8435 34.8633C26.8902 36.8438 23.5065 38.0156 20.1228 38.2266L20.3739 37.4532L22.275 31.6524C27.8348 30.2578 31.9478 25.3242 31.9478 19.4414C31.9478 13.0547 27.3565 7.47657 20.4696 6.89063V0.785156C30.4174 1.38281 38.2609 9.51563 38.2609 19.4531C38.2609 23.3906 36.9217 27.0352 34.7935 30.0469L36.5391 31.1719C37.7109 34.3477 40.3054 36.7969 42.8043 37.8985C45.3033 39 46.6543 39.0352 49.5957 42.9375C52.537 46.8282 54.7011 49.3711 54.9163 50.0039C55.1315 50.6368 55 52.0313 53.6609 53.3438V53.3438ZM52.4772 51.2461C52.4772 50.7305 52.0467 50.3086 51.5207 50.3086C50.9946 50.3086 50.5641 50.7305 50.5641 51.2461C50.5641 51.7618 50.9946 52.1836 51.5207 52.1836C52.0467 52.1836 52.4772 51.7618 52.4772 51.2461Z" fill="white"/>
</svg>
