<svg width="55" height="60" viewBox="0 0 55 60" fill="none" xmlns="http://www.w3.org/2000/svg">
<path d="M55 16.875C55 11.6953 49.8724 7.5 43.5417 7.5C37.2109 7.5 32.0833 11.6953 32.0833 16.875C32.0833 21.1406 35.5638 24.7383 40.319 25.875C40.2331 27.7617 39.7174 29.2148 38.7435 30.1992C36.5378 32.4492 31.6823 32.8242 26.5404 33.2109C22.5013 33.5156 18.319 33.8437 14.8958 35.1914V18.3164C19.5508 17.1211 22.9167 13.5703 22.9167 9.375C22.9167 4.19531 17.7891 0 11.4583 0C5.1276 0 0 4.19531 0 9.375C0 13.5703 3.36589 17.1211 8.02083 18.3164V41.6719C3.36589 42.8789 0 46.4297 0 50.625C0 55.8047 5.1276 60 11.4583 60C17.7891 60 22.9167 55.8047 22.9167 50.625C22.9167 46.6406 19.8802 43.2305 15.5833 41.8828C16.0273 41.2734 16.7005 40.7344 17.7174 40.3125C20.0378 39.3516 23.5039 39.0938 27.1849 38.8125C33.2292 38.3555 40.0755 37.8281 44.1146 33.7266C46.1198 31.6875 47.1367 29.0625 47.2083 25.7695C51.7344 24.5039 55 21 55 16.875ZM11.4583 7.5C12.7188 7.5 13.75 8.34375 13.75 9.375C13.75 10.4063 12.7188 11.25 11.4583 11.25C10.1979 11.25 9.16667 10.4063 9.16667 9.375C9.16667 8.34375 10.1979 7.5 11.4583 7.5ZM11.4583 52.5C10.1979 52.5 9.16667 51.6563 9.16667 50.625C9.16667 49.5937 10.1979 48.75 11.4583 48.75C12.7188 48.75 13.75 49.5937 13.75 50.625C13.75 51.6563 12.7188 52.5 11.4583 52.5ZM43.5417 15C44.8021 15 45.8333 15.8437 45.8333 16.875C45.8333 17.9063 44.8021 18.75 43.5417 18.75C42.2813 18.75 41.25 17.9063 41.25 16.875C41.25 15.8437 42.2813 15 43.5417 15Z" fill="white"/>
</svg>
